# xmcd
#
# Track frame offsets: 
#        150
#        16012
#        31196
#        48578
#        68592
#        88505
#
# Disc length: 1450 seconds
#
# Revision: 0
# Processed by: cddbd v1.5.2PL0 Copyright (c) Steve Scherf et al.
# Submitted via: ExactAudioCopy v0.99pb5
#
DISCID=3b05a806
DTITLE=Lubos Bena and Matej Ptaszek - B+P Promo
DYEAR=2009
DGENRE=blues
TTITLE0=Down By The Riverside
TTITLE1=Cornbred, Peas And Black Molasses
TTITLE2=Mean Old Frisco
TTITLE3=Sittin' On Top Of The World
TTITLE4=Good Morning Little Schoolgirl
TTITLE5=When The Saints Go Marchinin'
EXTD=
EXTT0=
EXTT1=
EXTT2=
EXTT3=
EXTT4=
EXTT5=
PLAYORDER=
